PathFileType  4	(X/Y/Z)
DataRate	CameraRate	NumFrames	NumMarkers	Units	OrigDataRate	OrigDataStartFrame	OrigNumFrames
  100.0 	  100.0 	    10 	     42 	mm 	  100.0 	      119 	    237
Frame#	Time	R.Shoulder			R.Clavicle			R.Bicep			R.Elbow			R.Forearm			R.Wrist			L.Shoulder			L.Clavicle			L.Scapula			L.Bicep			L.Elbow			L.Forearm			L.Wrist			R.ASIS			R.Iliac			S2			L.Iliac			L.ASIS			R.TH1			R.TH2			R.TH3			R.Knee			R.SH1			R.SH2			R.SH3			R.SH4			R.Ankle			R.Heel			R.MT5			L.TH1			L.TH2			L.TH3			L.TH4			L.Knee			L.SH1			L.SH2			L.SH3			L.Ankle			L.Heel			L.MT5			R_HJC			L_HJC			
		X1	Y1	Z1	X2	Y2	Z2	X3	Y3	Z3	X4	Y4	Z4	X5	Y5	Z5	X6	Y6	Z6	X7	Y7	Z7	X8	Y8	Z8	X9	Y9	Z9	X10	Y10	Z10	X11	Y11	Z11	X12	Y12	Z12	X13	Y13	Z13	X14	Y14	Z14	X15	Y15	Z15	X16	Y16	Z16	X17	Y17	Z17	X18	Y18	Z18	X19	Y19	Z19	X20	Y20	Z20	X21	Y21	Z21	X22	Y22	Z22	X23	Y23	Z23	X24	Y24	Z24	X25	Y25	Z25	X26	Y26	Z26	X27	Y27	Z27	X28	Y28	Z28	X29	Y29	Z29	X30	Y30	Z30	X31	Y31	Z31	X32	Y32	Z32	X33	Y33	Z33	X34	Y34	Z34	X35	Y35	Z35	X36	Y36	Z36	X37	Y37	Z37	X38	Y38	Z38	X39	Y39	Z39	X40	Y40	Z40	X41	Y41	Z41	X42	Y42	Z42	

119	1.18000	-120.522	1385.923	-34.207	-45.788	1367.789	-190.550	-120.090	1213.104	-12.323	-214.963	1090.638	29.131	-145.428	956.640	48.688	-170.583	857.439	92.282	-147.914	1396.178	-420.311	-40.274	1370.912	-256.789	-255.676	1285.704	-279.822	-69.801	1243.842	-419.288	-79.146	1102.751	-487.980	42.181	1039.001	-459.985	104.616	940.566	-491.177	-50.870	927.164	-92.728	-153.488	1003.202	-65.692	-237.844	941.166	-224.168	-147.308	1006.284	-387.258	-47.895	925.527	-369.488	31.463	727.554	-116.398	58.086	645.607	-127.336	-45.837	599.169	-33.536	7.309	470.274	-72.804	124.587	376.108	-97.735	149.932	306.954	-103.956	24.367	333.142	-59.187	48.742	263.479	-66.939	177.969	103.608	-99.382	145.684	40.343	-169.522	313.717	100.163	-62.098	-72.415	707.369	-379.846	-90.124	627.582	-356.110	-216.340	727.893	-423.861	-233.068	644.856	-398.574	-255.464	487.727	-366.087	-267.009	354.186	-343.402	-294.748	284.005	-336.106	-401.590	322.270	-355.489	-441.918	116.387	-307.936	-507.353	73.499	-252.526	-329.798	36.157	-343.459	-123.731	831.957	-125.672	-124.938	833.543	-335.470
120	1.19000	-108.274	1384.298	-32.825	-33.370	1366.607	-189.070	-108.007	1211.475	-11.261	-203.147	1089.130	29.782	-135.025	954.596	49.860	-161.792	855.606	93.231	-135.014	1395.162	-419.104	-27.664	1369.848	-255.297	-243.065	1284.569	-278.990	-56.567	1242.885	-417.424	-64.895	1101.927	-486.105	56.680	1039.289	-457.032	120.339	941.684	-487.929	-37.901	926.496	-92.000	-141.014	1002.086	-64.985	-224.756	939.711	-223.175	-134.424	1005.014	-386.591	-34.725	924.383	-368.917	45.867	728.540	-116.608	73.084	646.793	-127.797	-29.482	599.581	-33.039	23.525	470.427	-72.691	138.694	373.932	-98.656	162.495	304.352	-105.244	38.031	333.079	-59.330	60.902	263.009	-67.443	186.431	101.823	-100.815	152.062	39.708	-170.486	322.126	95.249	-65.044	-60.394	706.146	-379.653	-78.371	626.351	-356.063	-204.394	727.489	-423.019	-221.418	644.433	-397.924	-244.981	487.534	-366.053	-258.994	353.910	-343.542	-288.263	284.345	-336.401	-394.205	324.980	-355.840	-439.332	119.798	-308.930	-505.688	78.576	-253.157	-329.155	36.322	-343.866	-110.458	830.930	-124.827	-111.523	832.338	-334.627
121	1.20000	-96.091	1382.924	-31.345	-20.927	1365.687	-187.428	-95.873	1210.104	-10.121	-191.204	1087.814	30.466	-124.338	952.798	50.940	-152.605	854.006	94.097	-121.974	1394.415	-417.763	-15.002	1369.046	-253.638	-230.336	1283.575	-278.208	-43.331	1242.114	-415.466	-50.892	1101.312	-484.110	70.813	1039.511	-454.035	135.459	942.605	-484.683	-24.676	926.235	-91.165	-128.385	1001.209	-64.270	-211.412	938.390	-222.207	-121.218	1003.823	-385.900	-21.251	923.349	-368.289	60.709	730.014	-116.770	88.588	648.509	-128.188	-12.542	600.412	-32.463	40.286	470.918	-72.455	152.792	371.586	-99.625	174.745	301.478	-106.560	51.658	333.326	-59.279	72.678	262.758	-67.775	193.460	100.031	-102.190	156.448	39.512	-171.317	328.893	89.131	-68.054	-47.902	705.043	-379.291	-66.096	625.210	-355.811	-191.947	726.997	-422.143	-209.208	643.925	-397.221	-233.811	487.293	-366.008	-250.445	353.603	-343.692	-281.302	284.716	-336.717	-386.239	327.842	-356.189	-436.368	123.482	-310.000	-503.658	84.197	-253.778	-328.429	36.483	-344.283	-96.879	830.162	-123.858	-97.713	831.256	-333.661
122	1.21000	-83.995	1381.821	-29.774	-8.461	1365.045	-185.640	-83.700	1209.008	-8.903	-179.164	1086.698	31.166	-113.392	951.269	51.946	-143.011	852.645	94.882	-108.820	1393.932	-416.288	-2.298	1368.525	-251.831	-217.498	1282.714	-277.476	-30.098	1241.538	-413.442	-37.162	1100.897	-482.012	84.577	1039.674	-451.036	149.972	943.323	-481.453	-11.170	926.374	-90.251	-115.485	1000.616	-63.554	-197.801	937.246	-221.257	-107.658	1002.724	-385.181	-7.450	922.418	-367.603	75.864	731.776	-116.796	104.376	650.516	-128.415	4.586	601.539	-31.811	57.223	471.680	-72.085	166.758	369.313	-100.596	186.732	298.644	-107.819	65.236	333.859	-58.981	84.235	262.767	-67.834	199.563	98.395	-103.402	159.535	39.893	-171.980	334.462	82.285	-70.933	-34.940	704.061	-378.785	-53.292	624.156	-355.393	-179.013	726.426	-421.216	-196.454	643.353	-396.441	-221.947	487.014	-365.947	-241.357	353.297	-343.875	-273.859	285.146	-337.067	-377.689	330.880	-356.471	-432.954	127.441	-311.095	-501.163	90.412	-254.332	-327.628	36.667	-344.707	-82.980	829.677	-122.760	-83.532	830.310	-332.566
123	1.22000	-71.999	1381.004	-28.121	4.025	1364.702	-183.723	-71.494	1208.192	-7.605	-167.055	1085.784	31.865	-102.206	950.026	52.907	-133.010	851.524	95.597	-95.592	1393.705	-414.686	10.437	1368.307	-249.898	-204.565	1281.997	-276.777	-16.881	1241.160	-411.372	-23.722	1100.662	-479.831	97.967	1039.778	-448.073	163.886	943.835	-478.262	2.607	926.905	-89.294	-102.229	1000.371	-62.846	-183.936	936.333	-220.322	-93.729	1001.744	-384.434	6.688	921.588	-366.856	91.199	733.672	-116.618	120.235	652.624	-128.403	21.553	602.881	-31.070	74.019	472.681	-71.557	180.499	367.318	-101.516	198.478	296.109	-108.952	78.759	334.679	-58.370	95.705	263.079	-67.515	205.090	96.987	-104.361	161.875	40.856	-172.463	339.153	75.131	-73.494	-21.507	703.209	-378.156	-39.940	623.194	-354.857	-165.612	725.801	-420.208	-183.162	642.738	-395.565	-209.382	486.714	-365.877	-231.710	353.025	-344.123	-265.905	285.672	-337.468	-368.537	334.120	-356.627	-429.001	131.686	-312.173	-498.086	97.276	-254.761	-326.750	36.921	-345.133	-68.784	829.510	-121.533	-69.031	829.519	-331.341
124	1.23000	-60.096	1380.480	-26.400	16.524	1364.673	-181.693	-59.263	1207.649	-6.231	-154.895	1085.076	32.554	-90.794	949.079	53.849	-122.600	850.645	96.249	-82.333	1393.722	-412.979	23.193	1368.403	-247.866	-191.558	1281.450	-276.087	-3.696	1240.979	-409.278	-10.576	1100.591	-477.593	110.979	1039.822	-445.173	177.215	944.146	-475.135	16.611	927.815	-88.326	-88.585	1000.547	-62.163	-169.843	935.709	-219.410	-79.426	1000.912	-383.656	21.148	920.863	-366.048	106.576	735.606	-116.190	135.984	654.726	-128.107	38.108	604.392	-30.211	90.450	473.915	-70.844	193.934	365.715	-102.340	209.964	294.017	-109.919	92.210	335.788	-57.382	107.144	263.723	-66.727	210.189	95.824	-105.009	163.832	42.291	-172.777	343.150	68.017	-75.582	-7.595	702.502	-377.411	-26.006	622.342	-354.256	-151.760	725.149	-419.090	-169.323	642.091	-394.590	-196.096	486.409	-365.820	-221.469	352.814	-344.482	-257.393	286.332	-337.952	-358.738	337.579	-356.611	-424.398	136.240	-313.197	-494.292	104.857	-255.005	-325.784	37.308	-345.541	-54.351	829.699	-120.180	-54.276	828.909	-329.986
125	1.24000	-48.268	1380.254	-24.623	29.023	1364.963	-179.578	-47.015	1207.378	-4.780	-142.693	1084.583	33.233	-79.164	948.437	54.791	-111.775	850.012	96.844	-69.080	1393.978	-411.198	35.960	1368.816	-245.761	-178.498	1281.106	-275.380	9.438	1240.987	-407.188	2.276	1100.672	-475.328	123.611	1039.803	-442.359	189.974	944.265	-472.100	30.774	929.081	-87.363	-74.583	1001.195	-61.521	-155.557	935.415	-218.535	-64.758	1000.261	-382.849	35.897	920.254	-365.178	121.856	737.535	-115.497	151.486	656.783	-127.507	54.117	606.049	-29.192	106.424	475.365	-69.936	206.985	364.507	-103.045	221.117	292.380	-110.706	105.544	337.168	-55.984	118.512	264.691	-65.435	214.859	94.910	-105.342	165.606	44.025	-172.948	346.541	61.238	-77.111	6.812	701.958	-376.553	-11.448	621.620	-353.641	-137.466	724.493	-417.841	-154.912	641.407	-393.533	-182.057	486.107	-365.811	-210.582	352.682	-345.006	-248.260	287.157	-338.563	-348.227	341.273	-356.391	-419.012	141.138	-314.134	-489.619	113.226	-255.011	-324.706	37.903	-345.898	-39.764	830.267	-118.709	-39.337	828.504	-328.509
126	1.25000	-36.492	1380.316	-22.805	41.514	1365.557	-177.406	-34.760	1207.380	-3.258	-130.449	1084.314	33.909	-67.318	948.103	55.742	-100.524	849.629	97.384	-55.860	1394.463	-409.376	48.728	1369.533	-243.609	-165.400	1280.990	-274.640	22.489	1241.180	-405.137	14.830	1100.896	-473.065	135.860	1039.723	-439.649	202.183	944.201	-469.187	45.015	930.675	-86.410	-60.309	1002.334	-60.929	-141.125	935.469	-217.717	-49.755	999.819	-382.017	50.882	919.776	-364.236	136.916	739.462	-114.549	166.641	658.806	-126.605	69.554	607.843	-27.979	121.951	476.986	-68.855	219.566	363.608	-103.625	231.823	291.107	-111.322	118.671	338.764	-54.201	129.683	265.931	-63.680	219.036	94.243	-105.407	167.275	45.882	-173.013	349.375	55.035	-78.084	21.728	701.595	-375.586	3.771	621.047	-353.054	-122.736	723.831	-416.462	-139.893	640.658	-392.429	-167.210	485.798	-365.889	-198.977	352.631	-345.749	-238.427	288.157	-339.340	-336.918	345.205	-355.954	-412.689	146.421	-314.963	-483.883	122.449	-254.751	-323.477	38.798	-346.169	-25.120	831.223	-117.136	-24.277	828.324	-326.922
127	1.26000	-24.744	1380.647	-20.962	53.991	1366.425	-175.212	-22.505	1207.653	-1.673	-118.162	1084.269	34.590	-55.254	948.075	56.696	-88.836	849.489	97.872	-42.688	1395.162	-407.546	61.486	1370.521	-241.432	-152.273	1281.106	-273.858	35.422	1241.551	-403.174	27.077	1101.254	-470.830	147.724	1039.585	-437.062	213.859	943.960	-466.432	59.257	932.549	-85.450	-45.888	1003.931	-60.388	-126.604	935.872	-216.977	-34.466	999.605	-381.165	66.024	919.446	-363.194	151.655	741.403	-113.369	181.386	660.825	-125.423	84.460	609.758	-26.559	137.057	478.704	-67.647	231.573	362.892	-104.079	241.957	290.073	-111.784	131.453	340.487	-52.118	140.487	267.356	-61.578	222.668	93.804	-105.300	168.840	47.703	-173.009	351.700	49.602	-78.586	37.157	701.431	-374.523	19.677	620.631	-352.531	-107.574	723.137	-414.968	-124.232	639.805	-391.324	-151.487	485.443	-366.084	-186.572	352.648	-346.748	-227.810	289.318	-340.308	-324.711	349.358	-355.306	-405.262	152.133	-315.672	-476.886	132.575	-254.232	-322.028	40.106	-346.330	-10.522	832.539	-115.482	-9.160	828.379	-325.244
128	1.27000	-12.999	1381.220	-19.118	66.457	1367.524	-173.028	-10.243	1208.181	-0.040	-105.829	1084.443	35.280	-42.966	948.338	57.640	-76.709	849.584	98.317	-29.569	1396.054	-405.734	74.226	1371.733	-239.252	-139.120	1281.441	-273.037	48.208	1242.088	-401.350	39.006	1101.734	-468.645	159.203	1039.392	-434.615	225.017	943.547	-463.869	73.430	934.644	-84.447	-31.473	1005.908	-59.888	-112.060	936.601	-216.334	-18.962	999.624	-380.289	81.227	919.272	-362.008	166.012	743.365	-111.979	195.685	662.853	-123.998	98.886	611.765	-24.951	151.696	480.422	-66.363	242.892	362.238	-104.415	251.403	289.159	-112.124	143.719	342.231	-49.864	150.749	268.858	-59.290	225.738	93.565	-105.143	170.262	49.367	-172.972	353.577	45.079	-78.755	53.083	701.479	-373.390	36.276	620.371	-352.093	-91.992	722.365	-413.389	-107.906	638.797	-390.266	-134.807	484.976	-366.408	-173.269	352.696	-348.000	-216.311	290.604	-341.459	-311.486	353.681	-354.471	-396.565	158.303	-316.262	-468.426	143.631	-253.498	-320.262	41.958	-346.366	3.927	834.163	-113.764	5.952	828.662	-323.490
